<svg id="visual" viewBox="0 0 675 900" width="675" height="900" xmlns="http://www.w3.org/2000/svg" xmlns:xlink="http://www.w3.org/1999/xlink" version="1.1"><rect x="0" y="0" width="675" height="900" fill="#000000"></rect><path d="M0 762L12.5 747.3C25 732.7 50 703.3 75 684.7C100 666 125 658 150 661C175 664 200 678 225 688.7C250 699.3 275 706.7 300 690.8C325 675 350 636 375 640C400 644 425 691 450 697.3C475 703.7 500 669.3 525 650.2C550 631 575 627 600 624.3C625 621.7 650 620.3 662.5 619.7L675 619L675 901L662.5 901C650 901 625 901 600 901C575 901 550 901 525 901C500 901 475 901 450 901C425 901 400 901 375 901C350 901 325 901 300 901C275 901 250 901 225 901C200 901 175 901 150 901C125 901 100 901 75 901C50 901 25 901 12.5 901L0 901Z" fill="#bf64ec"></path><path d="M0 769L12.5 748.2C25 727.3 50 685.7 75 675.5C100 665.3 125 686.7 150 683.3C175 680 200 652 225 663.2C250 674.3 275 724.7 300 728.7C325 732.7 350 690.3 375 669.8C400 649.3 425 650.7 450 656.2C475 661.7 500 671.3 525 688.2C550 705 575 729 600 733.2C625 737.3 650 721.7 662.5 713.8L675 706L675 901L662.5 901C650 901 625 901 600 901C575 901 550 901 525 901C500 901 475 901 450 901C425 901 400 901 375 901C350 901 325 901 300 901C275 901 250 901 225 901C200 901 175 901 150 901C125 901 100 901 75 901C50 901 25 901 12.5 901L0 901Z" fill="#ba5ce9"></path><path d="M0 697L12.5 708.2C25 719.3 50 741.7 75 753.5C100 765.3 125 766.7 150 757.8C175 749 200 730 225 728.7C250 727.3 275 743.7 300 739.7C325 735.7 350 711.3 375 707C400 702.7 425 718.3 450 730.8C475 743.3 500 752.7 525 742C550 731.3 575 700.7 600 697.3C625 694 650 718 662.5 730L675 742L675 901L662.5 901C650 901 625 901 600 901C575 901 550 901 525 901C500 901 475 901 450 901C425 901 400 901 375 901C350 901 325 901 300 901C275 901 250 901 225 901C200 901 175 901 150 901C125 901 100 901 75 901C50 901 25 901 12.5 901L0 901Z" fill="#b553e7"></path><path d="M0 769L12.5 773.7C25 778.3 50 787.7 75 781.2C100 774.7 125 752.3 150 737.5C175 722.7 200 715.3 225 706.8C250 698.3 275 688.7 300 685.5C325 682.3 350 685.7 375 702.8C400 720 425 751 450 757.2C475 763.3 500 744.7 525 735C550 725.3 575 724.7 600 718.2C625 711.7 650 699.3 662.5 693.2L675 687L675 901L662.5 901C650 901 625 901 600 901C575 901 550 901 525 901C500 901 475 901 450 901C425 901 400 901 375 901C350 901 325 901 300 901C275 901 250 901 225 901C200 901 175 901 150 901C125 901 100 901 75 901C50 901 25 901 12.5 901L0 901Z" fill="#af4ae4"></path><path d="M0 779L12.5 771.5C25 764 50 749 75 752.2C100 755.3 125 776.7 150 777.8C175 779 200 760 225 754C250 748 275 755 300 760.7C325 766.3 350 770.7 375 771C400 771.3 425 767.7 450 762.3C475 757 500 750 525 744C550 738 575 733 600 740.8C625 748.7 650 769.3 662.5 779.7L675 790L675 901L662.5 901C650 901 625 901 600 901C575 901 550 901 525 901C500 901 475 901 450 901C425 901 400 901 375 901C350 901 325 901 300 901C275 901 250 901 225 901C200 901 175 901 150 901C125 901 100 901 75 901C50 901 25 901 12.5 901L0 901Z" fill="#aa41e1"></path><path d="M0 803L12.5 796.3C25 789.7 50 776.3 75 770.2C100 764 125 765 150 761.8C175 758.7 200 751.3 225 752.8C250 754.3 275 764.7 300 768C325 771.3 350 767.7 375 772.2C400 776.7 425 789.3 450 800C475 810.7 500 819.3 525 822.7C550 826 575 824 600 814.2C625 804.3 650 786.7 662.5 777.8L675 769L675 901L662.5 901C650 901 625 901 600 901C575 901 550 901 525 901C500 901 475 901 450 901C425 901 400 901 375 901C350 901 325 901 300 901C275 901 250 901 225 901C200 901 175 901 150 901C125 901 100 901 75 901C50 901 25 901 12.5 901L0 901Z" fill="#a437de"></path><path d="M0 832L12.5 822.3C25 812.7 50 793.3 75 794C100 794.7 125 815.3 150 817.3C175 819.3 200 802.7 225 799.5C250 796.3 275 806.7 300 815.2C325 823.7 350 830.3 375 827.5C400 824.7 425 812.3 450 802.2C475 792 500 784 525 791.5C550 799 575 822 600 823.2C625 824.3 650 803.7 662.5 793.3L675 783L675 901L662.5 901C650 901 625 901 600 901C575 901 550 901 525 901C500 901 475 901 450 901C425 901 400 901 375 901C350 901 325 901 300 901C275 901 250 901 225 901C200 901 175 901 150 901C125 901 100 901 75 901C50 901 25 901 12.5 901L0 901Z" fill="#9f2ddb"></path><path d="M0 824L12.5 821.2C25 818.3 50 812.7 75 812.2C100 811.7 125 816.3 150 823C175 829.7 200 838.3 225 842.8C250 847.3 275 847.7 300 848.3C325 849 350 850 375 842.8C400 835.7 425 820.3 450 820.3C475 820.3 500 835.7 525 843.5C550 851.3 575 851.7 600 844C625 836.3 650 820.7 662.5 812.8L675 805L675 901L662.5 901C650 901 625 901 600 901C575 901 550 901 525 901C500 901 475 901 450 901C425 901 400 901 375 901C350 901 325 901 300 901C275 901 250 901 225 901C200 901 175 901 150 901C125 901 100 901 75 901C50 901 25 901 12.5 901L0 901Z" fill="#9920d8"></path><path d="M0 844L12.5 848.2C25 852.3 50 860.7 75 864.2C100 867.7 125 866.3 150 863C175 859.7 200 854.3 225 851.2C250 848 275 847 300 848C325 849 350 852 375 853.5C400 855 425 855 450 855.7C475 856.3 500 857.7 525 858.3C550 859 575 859 600 860.7C625 862.3 650 865.7 662.5 867.3L675 869L675 901L662.5 901C650 901 625 901 600 901C575 901 550 901 525 901C500 901 475 901 450 901C425 901 400 901 375 901C350 901 325 901 300 901C275 901 250 901 225 901C200 901 175 901 150 901C125 901 100 901 75 901C50 901 25 901 12.5 901L0 901Z" fill="#930ed5"></path></svg>