<svg id="visual" viewBox="0 0 900 600" width="900" height="600" xmlns="http://www.w3.org/2000/svg" xmlns:xlink="http://www.w3.org/1999/xlink" version="1.1"><rect x="0" y="0" width="900" height="600" fill="#000000"></rect><path d="M0 508L16.7 498.2C33.3 488.3 66.7 468.7 100 456.2C133.3 443.7 166.7 438.3 200 440.3C233.3 442.3 266.7 451.7 300 458.8C333.3 466 366.7 471 400 460.5C433.3 450 466.7 424 500 426.5C533.3 429 566.7 460 600 464.2C633.3 468.3 666.7 445.7 700 433C733.3 420.3 766.7 417.7 800 415.8C833.3 414 866.7 413 883.3 412.5L900 412L900 601L883.3 601C866.7 601 833.3 601 800 601C766.7 601 733.3 601 700 601C666.7 601 633.3 601 600 601C566.7 601 533.3 601 500 601C466.7 601 433.3 601 400 601C366.7 601 333.3 601 300 601C266.7 601 233.3 601 200 601C166.7 601 133.3 601 100 601C66.7 601 33.3 601 16.7 601L0 601Z" fill="#bf64ec"></path><path d="M0 513L16.7 499C33.3 485 66.7 457 100 450.2C133.3 443.3 166.7 457.7 200 455.5C233.3 453.3 266.7 434.7 300 442C333.3 449.3 366.7 482.7 400 485.3C433.3 488 466.7 460 500 446.3C533.3 432.7 566.7 433.3 600 437C633.3 440.7 666.7 447.3 700 458.5C733.3 469.7 766.7 485.3 800 488C833.3 490.7 866.7 480.3 883.3 475.2L900 470L900 601L883.3 601C866.7 601 833.3 601 800 601C766.7 601 733.3 601 700 601C666.7 601 633.3 601 600 601C566.7 601 533.3 601 500 601C466.7 601 433.3 601 400 601C366.7 601 333.3 601 300 601C266.7 601 233.3 601 200 601C166.7 601 133.3 601 100 601C66.7 601 33.3 601 16.7 601L0 601Z" fill="#ba5ce9"></path><path d="M0 464L16.7 471.5C33.3 479 66.7 494 100 501.8C133.3 509.7 166.7 510.3 200 504.5C233.3 498.7 266.7 486.3 300 485.5C333.3 484.7 366.7 495.3 400 492.7C433.3 490 466.7 474 500 471.2C533.3 468.3 566.7 478.7 600 486.8C633.3 495 666.7 501 700 493.8C733.3 486.7 766.7 466.3 800 464.3C833.3 462.3 866.7 478.7 883.3 486.8L900 495L900 601L883.3 601C866.7 601 833.3 601 800 601C766.7 601 733.3 601 700 601C666.7 601 633.3 601 600 601C566.7 601 533.3 601 500 601C466.7 601 433.3 601 400 601C366.7 601 333.3 601 300 601C266.7 601 233.3 601 200 601C166.7 601 133.3 601 100 601C66.7 601 33.3 601 16.7 601L0 601Z" fill="#b553e7"></path><path d="M0 513L16.7 516C33.3 519 66.7 525 100 520.5C133.3 516 166.7 501 200 491.2C233.3 481.3 266.7 476.7 300 471C333.3 465.3 366.7 458.7 400 456.5C433.3 454.3 466.7 456.7 500 468.2C533.3 479.7 566.7 500.3 600 504.5C633.3 508.7 666.7 496.3 700 489.8C733.3 483.3 766.7 482.7 800 478.3C833.3 474 866.7 466 883.3 462L900 458L900 601L883.3 601C866.7 601 833.3 601 800 601C766.7 601 733.3 601 700 601C666.7 601 633.3 601 600 601C566.7 601 533.3 601 500 601C466.7 601 433.3 601 400 601C366.7 601 333.3 601 300 601C266.7 601 233.3 601 200 601C166.7 601 133.3 601 100 601C66.7 601 33.3 601 16.7 601L0 601Z" fill="#af4ae4"></path><path d="M0 519L16.7 514C33.3 509 66.7 499 100 501.2C133.3 503.3 166.7 517.7 200 518.5C233.3 519.3 266.7 506.7 300 502.7C333.3 498.7 366.7 503.3 400 507C433.3 510.7 466.7 513.3 500 513.5C533.3 513.7 566.7 511.3 600 507.8C633.3 504.3 666.7 499.7 700 495.7C733.3 491.7 766.7 488.3 800 493.5C833.3 498.7 866.7 512.3 883.3 519.2L900 526L900 601L883.3 601C866.7 601 833.3 601 800 601C766.7 601 733.3 601 700 601C666.7 601 633.3 601 600 601C566.7 601 533.3 601 500 601C466.7 601 433.3 601 400 601C366.7 601 333.3 601 300 601C266.7 601 233.3 601 200 601C166.7 601 133.3 601 100 601C66.7 601 33.3 601 16.7 601L0 601Z" fill="#aa41e1"></path><path d="M0 535L16.7 530.7C33.3 526.3 66.7 517.7 100 513.5C133.3 509.3 166.7 509.7 200 507.5C233.3 505.3 266.7 500.7 300 501.8C333.3 503 366.7 510 400 512.2C433.3 514.3 466.7 511.7 500 514.5C533.3 517.3 566.7 525.7 600 532.8C633.3 540 666.7 546 700 548.3C733.3 550.7 766.7 549.3 800 542.8C833.3 536.3 866.7 524.7 883.3 518.8L900 513L900 601L883.3 601C866.7 601 833.3 601 800 601C766.7 601 733.3 601 700 601C666.7 601 633.3 601 600 601C566.7 601 533.3 601 500 601C466.7 601 433.3 601 400 601C366.7 601 333.3 601 300 601C266.7 601 233.3 601 200 601C166.7 601 133.3 601 100 601C66.7 601 33.3 601 16.7 601L0 601Z" fill="#a437de"></path><path d="M0 554L16.7 547.7C33.3 541.3 66.7 528.7 100 529.2C133.3 529.7 166.7 543.3 200 544.5C233.3 545.7 266.7 534.3 300 532.2C333.3 530 366.7 537 400 542.8C433.3 548.7 466.7 553.3 500 551.5C533.3 549.7 566.7 541.3 600 534.5C633.3 527.7 666.7 522.3 700 527.3C733.3 532.3 766.7 547.7 800 548.5C833.3 549.3 866.7 535.7 883.3 528.8L900 522L900 601L883.3 601C866.7 601 833.3 601 800 601C766.7 601 733.3 601 700 601C666.7 601 633.3 601 600 601C566.7 601 533.3 601 500 601C466.7 601 433.3 601 400 601C366.7 601 333.3 601 300 601C266.7 601 233.3 601 200 601C166.7 601 133.3 601 100 601C66.7 601 33.3 601 16.7 601L0 601Z" fill="#9f2ddb"></path><path d="M0 549L16.7 547C33.3 545 66.7 541 100 540.7C133.3 540.3 166.7 543.7 200 548.2C233.3 552.7 266.7 558.3 300 561.3C333.3 564.3 366.7 564.7 400 565.2C433.3 565.7 466.7 566.3 500 561.5C533.3 556.7 566.7 546.3 600 546.3C633.3 546.3 666.7 556.7 700 562C733.3 567.3 766.7 567.7 800 562.7C833.3 557.7 866.7 547.3 883.3 542.2L900 537L900 601L883.3 601C866.7 601 833.3 601 800 601C766.7 601 733.3 601 700 601C666.7 601 633.3 601 600 601C566.7 601 533.3 601 500 601C466.7 601 433.3 601 400 601C366.7 601 333.3 601 300 601C266.7 601 233.3 601 200 601C166.7 601 133.3 601 100 601C66.7 601 33.3 601 16.7 601L0 601Z" fill="#9920d8"></path><path d="M0 562L16.7 564.8C33.3 567.7 66.7 573.3 100 575.7C133.3 578 166.7 577 200 574.8C233.3 572.7 266.7 569.3 300 567.2C333.3 565 366.7 564 400 564.7C433.3 565.3 466.7 567.7 500 568.8C533.3 570 566.7 570 600 570.5C633.3 571 666.7 572 700 572.3C733.3 572.7 766.7 572.3 800 573.3C833.3 574.3 866.7 576.7 883.3 577.8L900 579L900 601L883.3 601C866.7 601 833.3 601 800 601C766.7 601 733.3 601 700 601C666.7 601 633.3 601 600 601C566.7 601 533.3 601 500 601C466.7 601 433.3 601 400 601C366.7 601 333.3 601 300 601C266.7 601 233.3 601 200 601C166.7 601 133.3 601 100 601C66.7 601 33.3 601 16.7 601L0 601Z" fill="#930ed5"></path></svg>